<svg width="21" height="12" viewBox="0 0 21 12" fill="none" xmlns="http://www.w3.org/2000/svg">
<path d="M20.1464 11.0245C20.3417 11.2198 20.6583 11.2198 20.8536 11.0245C21.0488 10.8293 21.0488 10.5127 20.8536 10.3174L20.1464 11.0245ZM10.829 1.00001L11.1825 0.646452C10.9884 0.452308 10.674 0.451035 10.4783 0.643599L10.829 1.00001ZM0.649323 10.3146C0.452485 10.5082 0.44992 10.8248 0.643593 11.0217C0.837267 11.2185 1.15384 11.2211 1.35068 11.0274L0.649323 10.3146ZM20.8536 10.3174L11.1825 0.646452L10.4754 1.35356L20.1464 11.0245L20.8536 10.3174ZM10.4783 0.643599L0.649323 10.3146L1.35068 11.0274L11.1797 1.35641L10.4783 0.643599Z" fill="#FCF6F4"/>
</svg>
