<svg width="129" height="24" viewBox="0 0 129 24" fill="none" xmlns="http://www.w3.org/2000/svg">
<path d="M10.6787 19.4936C11.1876 19.4936 11.6706 19.4481 12.1251 19.3466C12.5862 19.2448 12.9954 19.0851 13.3406 18.8479C13.6857 18.6205 13.9712 18.3083 14.1796 17.9104C14.3877 17.5168 14.4872 17.0059 14.4872 16.3875C14.4872 15.1771 14.1476 14.3172 13.4721 13.7952C12.7951 13.2806 11.8923 13.0247 10.782 13.0247H5.1735V19.4936H10.6787V19.4936ZM10.394 9.49369C11.3075 9.49369 12.0639 9.27617 12.6636 8.83432C13.2569 8.40106 13.5451 7.68282 13.5451 6.69807C13.5451 6.15238 13.4491 5.69992 13.2569 5.34927C13.0586 4.99861 12.7951 4.724 12.4625 4.53226C12.1324 4.33242 11.7595 4.19398 11.3262 4.11996C10.9019 4.03609 10.4562 4.004 9.99991 4.004H5.1735V9.49369H10.394ZM11.0611 0.00257197C12.1813 0.00257197 13.1927 0.0998351 14.1173 0.300677C15.0362 0.495961 15.8208 0.822361 16.4837 1.27028C17.1367 1.71718 17.6474 2.31213 18.013 3.06144C18.3698 3.80013 18.5497 4.72426 18.5497 5.8179C18.5497 7.00072 18.2816 7.98826 17.746 8.77773C17.2068 9.56619 16.4144 10.2129 15.3557 10.7154C16.7976 11.131 17.8651 11.8634 18.5734 12.9035C19.2851 13.9506 19.6331 15.2049 19.6331 16.6742C19.6331 17.8659 19.4053 18.8908 18.9516 19.7536C18.4925 20.6269 17.8682 21.335 17.0984 21.881C16.3224 22.4322 15.4313 22.8364 14.433 23.0997C13.4337 23.3642 12.4043 23.497 11.3708 23.4948H0.0152588V0.00231934H11.0611V0.00257197Z" fill="#FCF6F4"/>
<path d="M32.3406 10.4787C31.7864 9.86405 30.8488 9.53133 29.7047 9.53133C28.9599 9.53133 28.3434 9.65714 27.8506 9.91306C27.3684 10.1657 26.9725 10.4805 26.6709 10.8506C26.3701 11.227 26.1645 11.6239 26.0456 12.0486C25.9262 12.4626 25.8551 12.838 25.833 13.17H33.4145C33.3034 11.9781 32.8967 11.0976 32.3406 10.4787ZM26.9866 19.4153C27.6843 20.0984 28.6931 20.4427 30 20.4427C30.9395 20.4427 31.7518 20.2045 32.4331 19.7291C33.1084 19.2554 33.5195 18.7478 33.6788 18.2216H37.7818C37.1225 20.2689 36.1217 21.7309 34.7559 22.6106C33.4074 23.4945 31.7614 23.9351 29.8443 23.9351C28.5079 23.9351 27.3054 23.7176 26.2263 23.2909C25.1469 22.8584 24.2449 22.2518 23.486 21.4616C22.7465 20.6676 22.1728 19.7291 21.7637 18.6276C21.3588 17.5312 21.1539 16.317 21.1539 15.0013C21.1539 13.7293 21.3668 12.5409 21.7805 11.443C22.2038 10.3413 22.7884 9.39036 23.5571 8.59281C24.3285 7.79095 25.2421 7.15836 26.3061 6.6963C27.3711 6.23499 28.5445 6.00409 29.8443 6.00409C31.2794 6.00409 32.5364 6.28072 33.6138 6.84535C34.6876 7.40114 35.5674 8.15474 36.2595 9.09883C36.9509 10.0414 37.443 11.1191 37.7506 12.327C38.0549 13.5338 38.1625 14.7944 38.0746 16.1147H25.8327C25.8327 17.4589 26.2862 18.7319 26.9866 19.4153V19.4153Z" fill="#FCF6F4"/>
<path d="M44.6927 0.00257197V8.86034H44.7995C45.3911 7.87483 46.1394 7.15836 47.0593 6.71424C47.9774 6.26632 48.8733 6.04501 49.7458 6.04501C50.9905 6.04501 52.0102 6.20923 52.8063 6.54725C53.6035 6.89158 54.2341 7.35744 54.696 7.96299C55.1487 8.56603 55.469 9.30194 55.6569 10.169C55.8408 11.0342 55.9361 11.9889 55.9361 13.0414V23.4948H51.2538V13.8897C51.2538 12.4894 51.0358 11.4367 50.6017 10.748C50.1669 10.0583 49.3946 9.71222 48.2807 9.71222C47.021 9.71222 46.1099 10.095 45.5458 10.8506C44.9713 11.6059 44.6927 12.8496 44.6927 14.5802V23.4948H40.0121V0.00231934H44.6927" fill="#FCF6F4"/>
<path d="M68.4339 15.5927C68.1442 15.689 67.8227 15.7703 67.4916 15.8408C67.1373 15.9068 66.7811 15.9616 66.4233 16.005C66.0521 16.0483 65.6822 16.1021 65.314 16.1665C64.9653 16.2349 64.6166 16.3206 64.2845 16.4322C63.9467 16.5429 63.6504 16.6899 63.4065 16.8756C63.1548 17.0636 62.9474 17.3047 62.799 17.582C62.6493 17.8657 62.5695 18.234 62.5695 18.6695C62.5695 19.0851 62.6493 19.4358 62.7988 19.7238C62.9529 20.0093 63.154 20.2323 63.4181 20.3973C63.6813 20.5623 63.99 20.6782 64.3336 20.7426C64.6824 20.8121 65.0426 20.8381 65.412 20.8381C66.3281 20.8381 67.0346 20.6855 67.538 20.3796C68.0389 20.0717 68.4163 19.7043 68.6519 19.2761C68.8922 18.8479 69.0374 18.4162 69.0842 17.9809C69.1457 17.5428 69.1734 17.1896 69.1734 16.9246V15.1772C68.9714 15.3565 68.7338 15.4947 68.4339 15.5927V15.5927ZM59.2626 8.9738C59.7288 8.25681 60.3551 7.65846 61.0918 7.2261C61.8355 6.78399 62.6665 6.4725 63.6005 6.28605C64.5238 6.09667 65.464 6.0022 66.4065 6.00412C67.256 6.00412 68.1155 6.06298 69.0008 6.18424C69.8716 6.30475 70.668 6.54121 71.3903 6.89338C72.1119 7.24757 72.7 7.73212 73.1553 8.36445C73.6171 8.98088 73.8512 9.81582 73.8512 10.8506V19.7157C73.8512 20.4865 73.8973 21.2189 73.9792 21.9202C74.0716 22.6275 74.311 23.1581 74.537 23.5062L69.7776 23.4946C69.6378 23.2912 69.5221 22.9726 69.4677 22.6952C69.4119 22.419 69.3736 22.1396 69.3531 21.8585C68.6118 22.6275 67.7428 23.1682 66.7302 23.4766C65.7318 23.7809 64.6939 23.9354 63.6504 23.9351C62.8441 23.9351 62.0933 23.8326 61.3906 23.6345C60.6985 23.4365 60.0837 23.1298 59.5596 22.7149C59.0331 22.292 58.6282 21.7676 58.3326 21.1325C58.0394 20.4938 57.8879 19.7336 57.8879 18.856C57.8879 17.8871 58.0615 17.0896 58.4039 16.4651C58.7375 15.8408 59.1709 15.3383 59.7128 14.9665C60.2457 14.5918 60.8577 14.3099 61.5508 14.1262C62.2341 13.9398 62.927 13.7906 63.6264 13.6793C64.3284 13.5714 65.0114 13.484 65.6939 13.4161C66.378 13.3491 66.9706 13.2539 67.4999 13.12C68.022 12.9896 68.4402 12.7916 68.7471 12.541C69.0487 12.2896 69.1938 11.9238 69.1734 11.4367C69.1734 10.9335 69.0842 10.5323 68.9232 10.2324C68.771 9.94983 68.5473 9.71234 68.2747 9.54374C68.0001 9.37776 67.6902 9.26913 67.3334 9.21102C66.95 9.15582 66.5632 9.12838 66.1759 9.12892C65.2641 9.12892 64.5425 9.33229 64.0311 9.72311C63.5052 10.1253 63.2029 10.7872 63.1094 11.7113H58.4352C58.5027 10.6081 58.7733 9.69709 59.2626 8.9738V8.9738Z" fill="#FCF6F4"/>
<path d="M80.8394 6.48942V8.86037H80.9435C81.5333 7.87485 82.2939 7.15839 83.2388 6.71426C84.1755 6.26635 85.146 6.04504 86.1302 6.04504C87.3801 6.04504 88.4058 6.20925 89.1987 6.54728C90.0055 6.89161 90.6328 7.35747 91.0873 7.96302C91.5535 8.56605 91.8737 9.30197 92.0606 10.169C92.2491 11.0343 92.3428 11.989 92.3428 13.0414V23.4948H87.6585V13.8898C87.6585 12.4894 87.4388 11.4367 87.0019 10.748C86.559 10.0583 85.7948 9.61624 84.6729 9.61624C83.405 9.61624 82.4816 10.095 81.914 10.8506C81.3431 11.606 81.0599 12.8497 81.0599 14.5802V23.4948H76.4267V6.48942H80.8394" fill="#FCF6F4"/>
<path d="M102.711 9.53133C101.962 9.53133 101.343 9.69706 100.846 10.0416C100.339 10.3814 99.915 10.8321 99.6066 11.3599C99.2892 11.896 99.0692 12.4891 98.9332 13.1387C98.8059 13.7872 98.7349 14.4296 98.7349 15.0683C98.7349 15.6854 98.8059 16.311 98.9332 16.9496C99.0692 17.5847 99.2783 18.1582 99.5739 18.6809C99.871 19.1908 100.282 19.6242 100.776 19.9468C101.277 20.2778 101.886 20.4427 102.609 20.4427C103.731 20.4427 104.591 20.1287 105.193 19.507C105.793 18.8817 106.163 18.0415 106.32 16.9888H110.82C110.511 19.2448 109.636 20.9682 108.195 22.1563C106.75 23.3366 104.898 23.9351 102.644 23.9351C101.37 23.9351 100.213 23.7176 99.1451 23.2909C98.0793 22.8584 97.1743 22.2627 96.429 21.4937C95.6832 20.7229 95.105 19.8069 94.6815 18.7418C94.2677 17.6747 94.0596 16.5035 94.0596 15.2325C94.0596 13.9158 94.2526 12.6892 94.6361 11.5554C95.0178 10.4262 95.5819 9.44746 96.3335 8.62666C97.0783 7.80055 97.9893 7.15836 99.0667 6.6963C100.14 6.23499 101.366 6.00409 102.742 6.00409C103.749 6.00409 104.716 6.14051 105.65 6.39567C106.577 6.65613 107.411 7.05857 108.142 7.59819C108.873 8.13143 109.485 8.81318 109.936 9.59904C110.39 10.3956 110.65 11.35 110.722 12.4411H106.153C105.85 10.4999 104.703 9.53133 102.711 9.53133" fill="#FCF6F4"/>
<path d="M24.8801 1.57849H34.3772V3.89714H24.8801V1.57849Z" fill="#FCF6F4"/>
<path d="M123.238 10.4787C122.676 9.86405 121.731 9.53133 120.602 9.53133C119.858 9.53133 119.24 9.65714 118.738 9.91306C118.255 10.1657 117.813 10.4805 117.517 10.8506C117.221 11.227 117.008 11.6239 116.885 12.0486C116.774 12.4626 116.697 12.838 116.676 13.17H124.315C124.19 11.9781 123.794 11.0976 123.238 10.4787H123.238ZM117.826 19.4153C118.526 20.0984 119.583 20.4427 120.9 20.4427C121.837 20.4427 122.648 20.2045 123.325 19.7291C124.002 19.2554 124.422 18.7478 124.571 18.2216H128.674C128.019 20.2689 127.012 21.7309 125.655 22.6106C124.301 23.4945 122.662 23.9351 120.738 23.9351C119.398 23.9351 118.19 23.7176 117.12 23.2909C116.042 22.8584 115.139 22.2518 114.384 21.4616C113.637 20.6676 113.064 19.7291 112.656 18.6276C112.251 17.5312 112.05 16.317 112.05 15.0013C112.05 13.7293 112.258 12.5409 112.673 11.443C113.093 10.3413 113.69 9.39036 114.454 8.59281C115.229 7.79095 116.135 7.15836 117.196 6.6963C118.262 6.23499 119.445 6.00409 120.738 6.00409C122.171 6.00409 123.434 6.28072 124.5 6.84535C125.577 7.40114 126.461 8.15474 127.148 9.09883C127.839 10.0414 128.336 11.1191 128.641 12.327C128.942 13.5338 129.058 14.7944 128.972 16.1147H116.676C116.676 17.4589 117.124 18.7319 117.826 19.4153V19.4153Z" fill="#FCF6F4"/>
</svg>
