<svg width="98" height="24" viewBox="0 0 98 24" fill="none" xmlns="http://www.w3.org/2000/svg">
<g clip-path="url(#clip0)">
<path d="M29.9424 9.58578C31.0641 9.58578 31.9733 8.68064 31.9733 7.56425C31.9733 6.44768 31.0641 5.54273 29.9424 5.54273C28.8208 5.54273 27.9116 6.44768 27.9116 7.56425C27.9116 8.68064 28.8208 9.58578 29.9424 9.58578V9.58578ZM96.9653 16.4926C96.6563 16.2764 96.4178 16.2406 96.2199 16.6604C92.8091 24.0121 87.0611 20.3435 87.6321 20.6663C88.9071 20.086 92.2603 17.4098 91.7535 13.7145C91.4457 11.4563 89.4979 10.4545 87.4305 10.8132C83.8218 11.4393 82.4942 15.3128 83.17 18.7422C83.2883 19.3311 83.4996 19.8168 83.7108 20.2926C79.6327 23.5928 78.0132 17.3383 77.8294 16.5909C77.8221 16.5509 80.9782 13.933 81.856 7.69473C82.7761 1.15664 80.6802 -0.0338395 78.537 0.00330339C74.5711 0.0720653 73.4994 8.31797 74.9392 15.1903C74.8186 15.2216 74.2574 15.5309 73.3557 15.5656C72.7068 13.5338 69.9343 11.7528 69.2087 12.4391C67.3926 14.1559 69.6491 17.5123 71.2368 17.7755C70.283 23.6214 64.3182 22.1736 65.4286 14.8496C67.371 11.2601 68.8483 5.92273 68.5847 2.70064C68.4913 1.55987 67.6437 0.0314939 65.727 0.107303C62.0403 0.252446 61.6395 8.50064 62.0717 14.3547C62.0503 14.2105 61.8451 15.066 60.3343 15.4913C59.977 13.5174 56.7831 11.5361 56.0313 12.4886C54.6239 14.2715 57.063 17.4503 58.2183 17.6721C57.2645 23.5178 51.2999 22.07 52.4103 14.746C54.3527 11.1566 55.8298 5.8193 55.5662 2.59721C55.4728 1.45626 54.6254 -0.0721252 52.7085 0.00349387C49.0218 0.148827 48.621 8.39702 49.0532 14.2511C49.0316 14.1046 48.8216 14.9883 47.2492 15.4065C47.1966 12.8456 43.9911 11.6713 43.2211 12.4884C41.8487 13.945 43.5354 16.9336 45.0957 17.6721C44.1419 23.5178 38.1773 22.07 39.2877 14.746C41.2301 11.1566 42.7073 5.8193 42.4436 2.59721C42.3504 1.45626 41.5028 -0.0721252 39.5859 0.00349387C35.8994 0.148827 35.6027 8.81168 36.0349 14.6656C34.8206 19.8429 30.7485 26.3084 31.2775 13.3566C31.3298 12.4481 31.3868 12.1031 30.9316 11.7629C30.5905 11.4985 29.815 11.6258 29.391 11.6363C28.8757 11.6568 28.7465 11.9568 28.6327 12.4103C28.3674 13.5814 28.3197 14.7166 28.2818 16.2656C28.2569 16.9902 28.1985 17.3283 27.9181 18.3163C27.6381 19.3041 26.0404 21.1096 25.1657 20.8077C23.9522 20.3924 24.3503 16.9833 24.5777 14.641C24.7672 12.79 24.1604 11.9587 22.6058 11.6564C21.6957 11.4677 21.1427 11.4966 20.1949 11.1993C19.2985 10.9182 19.0958 9.23092 17.1841 9.79321C16.1384 10.101 16.8106 12.3058 16.5593 13.9399C15.3238 21.9782 12.753 22.1989 11.5604 18.2942C16.9318 5.20254 13.1142 0.0413986 10.8795 0.0413986C8.55203 0.0413986 5.89148 1.63683 7.0181 11.8448C6.4703 11.6858 6.30186 11.6001 5.70218 11.6001C2.31066 11.6001 0 14.3284 0 17.6942C0 21.0599 2.31085 23.7884 5.70237 23.7884C7.70448 23.7884 9.11017 22.8823 10.1748 21.4806C10.8694 22.4705 11.7152 23.8037 13.262 23.7437C17.8724 23.565 19.2132 14.1538 19.3715 13.6288C19.8643 13.7044 20.3306 13.8475 20.7858 13.9231C21.5441 14.0364 21.5992 14.3351 21.582 15.0942C21.381 21.4949 22.5679 23.7361 25.2603 23.7361C26.7603 23.7361 28.0973 22.2694 29.0183 21.2206C29.7063 22.6336 30.8024 23.6928 32.273 23.7359C35.8364 23.8241 37.2008 18.1721 37.0763 18.9159C36.9787 19.4995 38.2324 23.7041 41.9009 23.7193C46.4451 23.7383 47.2898 18.7654 47.3905 17.9324C47.4031 17.7667 47.4086 17.7839 47.3905 17.9324L47.387 17.9829C48.8296 17.7159 49.574 16.9462 49.574 16.9462C49.574 16.9462 50.7324 23.7966 55.0234 23.7195C59.4793 23.6391 60.3196 19.1439 60.4298 18.2673C60.4444 18.0593 60.453 18.0837 60.4298 18.2673C60.4292 18.2759 60.4286 18.2844 60.4281 18.293C62.1418 17.6726 62.5925 17.05 62.5925 17.05C62.5925 17.05 63.5132 23.7643 68.0419 23.8229C72.0775 23.8755 73.5731 19.7629 73.5819 18.0416C74.2626 18.0488 75.5216 17.6397 75.4922 17.6164C75.4922 17.6164 76.9704 23.4869 81.0984 23.7884C83.0366 23.93 84.4905 22.7031 85.3193 22.1435C87.2671 23.7132 93.7529 25.7182 97.8482 18.8086C98.4263 17.817 97.1835 16.6456 96.9653 16.4926V16.4926ZM5.53872 21.5092C3.55996 21.5092 2.29113 19.6884 2.29113 17.7252C2.29113 15.7622 3.45584 13.9414 5.4346 13.9414C6.32502 13.9414 6.82038 14.0389 7.51384 14.6391C7.6396 15.1323 7.996 16.2698 8.16941 16.7863C8.40178 17.4776 8.67817 18.066 8.95686 18.7063C8.55873 20.3488 7.25353 21.5092 5.53872 21.5092V21.5092ZM10.3606 14.6968C10.2783 14.5663 10.2956 14.6465 10.2035 14.5233C9.84077 13.5414 9.14175 11.3498 9.06079 8.86044C8.9693 6.04445 9.44092 2.74368 10.8313 2.74368C11.7734 2.74368 12.7746 9.43321 10.3604 14.6968H10.3606ZM38.2219 11.7627C37.9987 10.0917 37.9871 2.64216 39.7842 2.8473C40.7764 3.2473 39.155 10.2768 38.2219 11.7627ZM51.3445 11.7627C51.1214 10.0917 51.1097 2.64216 52.9068 2.8473C53.899 3.2473 52.2776 10.2768 51.3445 11.7627ZM64.363 11.8665C64.1397 10.1953 64.1282 2.74578 65.9251 2.95092C66.9173 3.35092 65.2959 10.3806 64.363 11.8665ZM78.7353 2.4113C80.3784 2.24178 80.3106 9.38197 77.0127 13.8898C76.5874 12.2604 75.9353 2.97073 78.7353 2.41111V2.4113ZM85.6413 17.7755C85.1136 15.1227 86.4772 13.3804 87.8828 13.1894C88.3742 13.1113 89.0862 13.4281 89.2282 14.0203C89.4617 15.1363 89.1944 16.7917 86.0482 18.8921C86.0528 18.91 85.759 18.3663 85.6415 17.7755H85.6413Z" fill="#FCF6F4"/>
</g>
<defs>
<clipPath id="clip0">
<rect width="98" height="24" fill="white"/>
</clipPath>
</defs>
</svg>
