<svg width="21" height="11" viewBox="0 0 21 11" fill="none" xmlns="http://www.w3.org/2000/svg">
<path d="M1.35355 0.2929C1.15829 0.0976381 0.841708 0.0976385 0.646446 0.292901C0.451184 0.488163 0.451185 0.804746 0.646447 1.00001L1.35355 0.2929ZM10.671 10.3174L10.3175 10.671C10.5116 10.8651 10.826 10.8664 11.0217 10.6738L10.671 10.3174ZM20.8507 1.00287C21.0475 0.809194 21.0501 0.492622 20.8564 0.295784C20.6627 0.098946 20.3462 0.0963807 20.1493 0.290054L20.8507 1.00287ZM0.646447 1.00001L10.3175 10.671L11.0246 9.96388L1.35355 0.2929L0.646447 1.00001ZM11.0217 10.6738L20.8507 1.00287L20.1493 0.290054L10.3203 9.96103L11.0217 10.6738Z" fill="#00C65C"/>
</svg>
