<svg width="88" height="24" viewBox="0 0 88 24" fill="none" xmlns="http://www.w3.org/2000/svg">
<path d="M16.9634 10.2409H9.56244C9.37148 10.2409 9.21645 10.3968 9.21645 10.5887V14.2237C9.21645 14.4155 9.37148 14.5716 9.56227 14.5716H12.4496V19.0879C12.4496 19.0879 11.8013 19.31 10.009 19.31C7.89439 19.31 4.94037 18.5337 4.94037 12.0085C4.94037 5.48184 8.01642 4.62319 10.9041 4.62319C13.4037 4.62319 14.4806 5.06521 15.1657 5.27827C15.3811 5.34458 15.5803 5.12927 15.5803 4.93727L16.4058 1.42498C16.4058 1.33519 16.3756 1.22711 16.2736 1.15373C15.9954 0.954302 14.2978 0 10.0088 0C5.06825 0 0 2.11166 0 12.263C0 22.4146 5.8025 23.9273 10.6923 23.9273C14.7409 23.9273 17.1968 22.1893 17.1968 22.1893C17.2982 22.1332 17.309 21.9911 17.309 21.9258V10.5887C17.309 10.397 17.1543 10.2409 16.9635 10.2409H16.9634ZM55.0853 1.27062C55.0853 1.07724 54.9326 0.921151 54.7417 0.921151H50.5744C50.5289 0.921332 50.4839 0.930515 50.4419 0.948175C50.3999 0.965836 50.3618 0.991628 50.3298 1.02408C50.2977 1.05653 50.2724 1.095 50.2551 1.13731C50.2379 1.17961 50.2291 1.22491 50.2293 1.27062L50.2303 9.36086H43.7348V1.27079C43.7348 1.07741 43.5815 0.921324 43.3909 0.921324H39.2236C39.1318 0.921826 39.044 0.958922 38.9794 1.02446C38.9149 1.08999 38.8789 1.17859 38.8793 1.27079V23.1767C38.8793 23.3701 39.034 23.5273 39.2236 23.5273H43.3907C43.5813 23.5273 43.7345 23.3701 43.7345 23.1767V13.8067H50.2301L50.2188 23.1766C50.2188 23.37 50.3735 23.5271 50.5639 23.5271H54.7412C54.9319 23.5271 55.0846 23.37 55.0849 23.1766V1.27079L55.0853 1.27062ZM24.8136 4.19948C24.8136 2.69214 23.6105 1.47384 22.1263 1.47384C20.6436 1.47384 19.4396 2.69197 19.4396 4.19948C19.4396 5.70509 20.6436 6.92668 22.1263 6.92668C23.6105 6.92668 24.8136 5.70509 24.8136 4.19948V4.19948ZM24.4829 18.567V8.45525C24.4829 8.26325 24.3287 8.1063 24.1381 8.1063H19.9841C19.7935 8.1063 19.6231 8.30383 19.6231 8.49583V22.983C19.6231 23.4088 19.8871 23.5354 20.229 23.5354H23.9716C24.3824 23.5354 24.4829 23.3328 24.4829 22.9761V18.567V18.567ZM71.0122 8.10647H66.8769C66.6872 8.10647 66.5328 8.26342 66.5328 8.45663V19.1979C66.5328 19.1979 65.4823 19.9701 63.9911 19.9701C62.5001 19.9701 62.1045 19.2903 62.1045 17.8237V8.45681C62.1045 8.26342 61.9503 8.1063 61.7605 8.1063H57.5635C57.3741 8.1063 57.2189 8.26342 57.2189 8.45681V18.533C57.2189 22.8893 59.636 23.9551 62.9609 23.9551C65.6886 23.9551 67.8877 22.4414 67.8877 22.4414C67.8877 22.4414 67.9925 23.2391 68.0398 23.3337C68.0873 23.4281 68.2107 23.5233 68.344 23.5233L71.0141 23.5115C71.2035 23.5115 71.3587 23.3542 71.3587 23.1619L71.3573 8.45663C71.3573 8.26342 71.2027 8.10647 71.0122 8.10647V8.10647ZM80.5401 19.9784C79.1058 19.9345 78.1328 19.2806 78.1328 19.2806V12.3433C78.1328 12.3433 79.0928 11.7522 80.2703 11.6466C81.7594 11.5126 83.1944 11.9644 83.1944 15.5332C83.1944 19.2963 82.5467 20.039 80.5401 19.9782V19.9784ZM82.1712 7.63597C79.8225 7.63597 78.225 8.68869 78.225 8.68869V1.27062C78.2253 1.22499 78.2166 1.17974 78.1995 1.13746C78.1824 1.09519 78.1572 1.05672 78.1252 1.02426C78.0933 0.991803 78.0553 0.965987 78.0134 0.948294C77.9716 0.930601 77.9266 0.921377 77.8812 0.921151H73.7021C73.6566 0.921355 73.6116 0.930558 73.5697 0.948235C73.5278 0.965912 73.4897 0.991716 73.4577 1.02417C73.4258 1.05663 73.4005 1.0951 73.3833 1.13739C73.3661 1.17967 73.3574 1.22495 73.3576 1.27062V23.1766C73.3576 23.37 73.512 23.5271 73.7026 23.5271H76.6021C76.7327 23.5271 76.8316 23.4597 76.9046 23.3411C76.9766 23.2234 77.0806 22.3311 77.0806 22.3311C77.0806 22.3311 78.7894 23.9579 82.0242 23.9579C85.822 23.9579 88 22.0227 88 15.2704C88 8.5181 84.5216 7.6358 82.1712 7.6358V7.63597ZM36.4769 8.06849H33.351L33.3462 3.91994C33.3462 3.76299 33.2657 3.68443 33.0849 3.68443H28.8252C28.6595 3.68443 28.5706 3.75764 28.5706 3.91753V8.20472C28.5706 8.20472 26.4359 8.72236 26.2915 8.76414C26.2196 8.78513 26.1563 8.82904 26.1113 8.88926C26.0663 8.94949 26.042 9.02277 26.042 9.09807V11.7921C26.042 11.9858 26.196 12.1421 26.3866 12.1421H28.5706V18.6231C28.5706 23.4369 31.9318 23.9099 34.2 23.9099C35.2364 23.9099 36.4762 23.5754 36.6809 23.4996C36.8046 23.4539 36.8765 23.3252 36.8765 23.1854L36.8799 20.2218C36.8799 20.0286 36.7175 19.8722 36.5344 19.8722C36.3522 19.8722 35.8865 19.9466 35.4066 19.9466C33.8712 19.9466 33.351 19.2294 33.351 18.3011L33.3508 12.1423H36.4769C36.5224 12.1421 36.5675 12.1329 36.6095 12.1152C36.6515 12.0975 36.6896 12.0716 36.7216 12.0391C36.7536 12.0066 36.7789 11.968 36.7961 11.9256C36.8133 11.8832 36.822 11.8379 36.8216 11.7921V8.41778C36.8216 8.2244 36.6675 8.06866 36.4769 8.06866V8.06849Z" fill="#FCF6F4"/>
</svg>
